PathFileType	4	(X/Y/Z)	SUBJ94_4_walk_RCNL2025.trc
DataRate	CameraRate	NumFrames	NumMarkers	Units	OrigDataRate	OrigDataStartFrame	OrigNumFrames
100	100	7	25	mm	100	260	297
Frame#	Time	R_Shoulder			L_Shoulder			C7			J_Notch			R_Elbow			L_Elbow			R_Wrist			L_Wrist			R_Asis			L_Asis			Sacral			Thoracic			Sternum			R_Thigh_Lateral			R_Knee_Lateral			R_Shank_Lateral			R_Ankle_Lateral			R_Heel			R_Toe			L_Thigh_Lateral			L_Knee_Lateral			L_Shank_Lateral			L_Ankle_Lateral			L_Heel			L_Toe		
		X1	Y1	Z1	X2	Y2	Z2	X3	Y3	Z3	X4	Y4	Z4	X5	Y5	Z5	X6	Y6	Z6	X7	Y7	Z7	X8	Y8	Z8	X9	Y9	Z9	X10	Y10	Z10	X11	Y11	Z11	X12	Y12	Z12	X13	Y13	Z13	X14	Y14	Z14	X15	Y15	Z15	X16	Y16	Z16	X17	Y17	Z17	X18	Y18	Z18	X19	Y19	Z19	X20	Y20	Z20	X21	Y21	Z21	X22	Y22	Z22	X23	Y23	Z23	X24	Y24	Z24	X25	Y25	Z25
260	2.59000000	1618.211670	1229.939209	-224.787888	1638.552612	1244.606689	-606.379456	1564.794678	1320.307495	-419.541260	1681.753052	1228.385620	-421.230988	1530.005493	957.898193	-149.542694	1611.252441	957.389221	-667.776489	1574.763916	739.128052	-115.614838	1775.823486	794.187592	-663.814667	1688.677368	847.381592	-286.957977	1676.643066	838.346924	-513.928833	1493.753784	908.006897	-390.822571	1498.908447	1118.608521	-418.317383	1713.831299	1033.941040	-408.066864	1707.188232	505.745636	-209.523911	1748.067017	427.690613	-266.774323	1794.245361	250.197632	-224.265121	1864.033447	51.685440	-301.690613	1824.521362	38.583424	-353.929962	1997.492554	74.725632	-325.873108	1517.963989	517.914856	-584.443115	1484.828735	424.825439	-524.041138	1410.856812	253.553940	-576.321045	1340.737549	65.246246	-462.274597	1301.265381	66.381302	-410.349365	1461.828369	33.444683	-440.862549
261	2.60000000	1631.877808	1228.884277	-224.158234	1651.106323	1243.569092	-605.716675	1577.616699	1319.511963	-418.829987	1694.555176	1227.168335	-420.902557	1542.157104	957.336731	-148.981613	1623.386475	956.511780	-667.205505	1585.074158	738.593750	-112.744007	1788.416443	793.816742	-662.520660	1702.071167	846.609741	-286.190704	1688.848267	837.591736	-513.265259	1506.468994	907.018860	-388.974060	1511.218994	1117.973633	-417.016174	1726.043335	1032.709106	-407.941895	1719.931152	504.679779	-209.971329	1760.038574	426.256165	-267.386536	1807.345703	248.888550	-225.444794	1876.090332	50.929443	-303.500092	1836.109497	37.933369	-355.327820	2009.086914	73.330078	-329.248627	1529.635864	517.540039	-584.611328	1496.521851	424.155518	-524.594727	1418.155518	254.782471	-576.835083	1342.585083	68.413963	-463.166199	1303.135376	70.974251	-411.441162	1462.252930	32.971615	-440.692261
262	2.61000000	1645.770142	1228.139404	-223.470047	1663.643799	1242.719360	-605.009705	1590.510620	1318.940186	-418.043671	1707.441040	1226.228271	-420.508942	1554.771240	957.019958	-148.322601	1635.218628	955.834656	-666.502075	1595.951965	738.350647	-109.757824	1800.495178	793.429565	-661.258087	1715.462036	846.158813	-285.301483	1701.233154	837.012634	-512.440735	1519.281128	906.262939	-387.293488	1523.643799	1117.554321	-415.634796	1738.407349	1031.768433	-407.707031	1733.211670	504.216431	-210.338699	1772.148193	425.200134	-267.883545	1819.678589	247.731201	-226.588470	1885.830444	50.105408	-305.281067	1845.328857	37.505066	-356.677277	2018.407593	70.847969	-332.601349	1542.173218	517.106323	-584.853088	1509.168457	423.396729	-525.287231	1426.253784	256.169617	-577.497742	1344.958618	72.113770	-464.220154	1305.674805	76.291862	-412.701935	1462.682251	32.446842	-440.516754
263	2.62000000	1659.862427	1227.720093	-222.730759	1676.150269	1242.074829	-604.265686	1603.460571	1318.602417	-417.186493	1720.393799	1225.583862	-420.052734	1567.840454	956.963562	-147.548843	1646.740234	955.371216	-665.663940	1607.422546	738.414093	-106.666588	1812.050049	793.033813	-660.032928	1728.826782	846.049194	-284.302490	1713.776367	836.611328	-511.463898	1532.166382	905.751221	-385.808472	1536.171143	1117.359009	-414.187714	1750.912354	1031.139160	-407.363495	1746.929321	504.341980	-210.591019	1784.316040	424.524017	-268.237091	1831.270386	246.730560	-227.643387	1893.505737	49.218983	-306.945496	1852.437988	37.265873	-357.892120	2025.730225	67.440125	-335.820587	1555.625854	516.593384	-585.165649	1522.816650	422.541168	-526.109436	1435.226562	257.713745	-578.293030	1347.979126	76.399559	-465.405212	1309.045654	82.380486	-414.084625	1463.140869	31.910885	-440.350220
264	2.63000000	1674.124756	1227.633911	-221.949387	1688.612305	1241.649170	-603.492065	1616.449585	1318.504517	-416.263855	1733.394897	1225.245972	-419.538116	1581.352051	957.177124	-146.644608	1657.947266	955.131531	-664.690125	1619.509277	738.792999	-103.482883	1823.074585	792.635345	-658.849396	1742.141235	846.292175	-283.208069	1726.450928	836.387634	-510.346924	1545.097778	905.490051	-384.540070	1548.786987	1117.392334	-412.690643	1763.541992	1030.833130	-406.916504	1760.946289	505.016937	-210.694077	1796.445435	424.213989	-268.422119	1842.151978	245.891006	-228.560760	1899.395996	48.293953	-308.416260	1857.725220	37.191364	-358.896240	2031.346680	63.323139	-338.810089	1570.031494	515.985535	-585.541931	1537.505249	421.585663	-527.045593	1445.151855	259.408752	-579.196899	1351.775391	81.316742	-466.681976	1313.411377	89.267441	-415.533844	1463.679688	31.425852	-440.214050
265	2.64000000	1688.523193	1227.880737	-221.136246	1701.018311	1241.452637	-602.696777	1629.459473	1318.647095	-415.282196	1746.424561	1225.218872	-418.970795	1595.288330	957.663330	-145.595978	1668.840820	955.121887	-663.581360	1632.232666	739.489746	-100.221382	1833.566467	792.237976	-657.710266	1755.381104	846.888550	-282.034576	1739.225830	836.339417	-509.105988	1558.046387	905.479919	-383.501465	1561.474609	1117.654663	-411.159973	1776.274536	1030.853882	-406.375244	1775.095947	506.178955	-210.618134	1808.427856	424.242523	-268.419037	1852.353638	245.214539	-229.299286	1903.791138	47.365139	-309.633057	1861.490723	37.261265	-359.629944	2035.548096	58.748333	-341.493958	1585.412354	515.273926	-585.970764	1553.260742	420.533539	-528.073975	1456.107788	261.244598	-580.178162	1356.479248	86.897186	-468.004822	1318.928101	96.955116	-416.988953	1464.383911	31.075199	-440.136475
266	2.65000000	1703.021240	1228.452026	-220.302505	1713.358032	1241.490601	-601.887817	1642.471924	1319.026001	-414.248840	1759.462158	1225.498779	-418.357849	1609.626953	958.418152	-144.391693	1679.426636	955.344604	-662.340454	1645.609497	740.499725	-96.898628	1843.527344	791.843475	-656.616547	1768.522461	847.828125	-280.800262	1752.066895	836.462891	-507.760986	1570.982422	905.715454	-382.697174	1574.215210	1118.142090	-409.612305	1789.084229	1031.196289	-405.752808	1789.194092	507.746979	-210.341232	1820.148560	424.570099	-268.215759	1861.899902	244.699203	-229.827820	1906.974243	46.471226	-310.556732	1864.028931	37.455940	-360.055176	2038.609741	53.978508	-343.820587	1601.771729	514.458679	-586.436707	1570.094238	419.396179	-529.167297	1468.168579	263.208252	-581.199951	1362.220947	93.153687	-469.324097	1325.735474	105.415695	-418.387726	1465.379639	30.960373	-440.150513
